<?xml version="1.0" standalone="no"?>
<!DOCTYPE svg PUBLIC "-//W3C//DTD SVG 1.0//EN" "http://www.w3.org/TR/2001/REC-SVG-20010904/DTD/svg10.dtd">
<svg xmlns="http://www.w3.org/2000/svg" xmlns:xlink="http://www.w3.org/1999/xlink" id="body_1" width="41" height="40">

<g transform="matrix(1 0 0 1 0 0)">
    <path d="M9.82263 10C 9.82263 9.72386 10.0465 9.5 10.3226 9.5L10.3226 9.5L18.4033 9.5C 18.5359 9.5 18.6631 9.55268 18.7568 9.64645L18.7568 9.64645L29.8478 20.7374C 30.043 20.9326 30.043 21.2492 29.8478 21.4445L29.8478 21.4445L21.7671 29.5251C 21.5718 29.7204 21.2552 29.7204 21.06 29.5251L21.06 29.5251L9.96908 18.4342C 9.87531 18.3404 9.82263 18.2133 9.82263 18.0807L9.82263 18.0807L9.82263 10zM10.3226 6.5C 8.38964 6.5 6.82263 8.067 6.82263 10L6.82263 10L6.82263 18.0807C 6.82263 19.0089 7.19138 19.8992 7.84776 20.5555L7.84776 20.5555L18.9387 31.6464C 20.3055 33.0133 22.5216 33.0133 23.8884 31.6464L23.8884 31.6464L31.9691 23.5658C 33.3359 22.1989 33.3359 19.9829 31.9691 18.616L31.9691 18.616L20.8782 7.52512C 20.2218 6.86875 19.3316 6.5 18.4033 6.5L18.4033 6.5L10.3226 6.5zM14.8226 16C 15.6511 16 16.3226 15.3284 16.3226 14.5C 16.3226 13.6716 15.6511 13 14.8226 13C 13.9942 13 13.3226 13.6716 13.3226 14.5C 13.3226 15.3284 13.9942 16 14.8226 16z" stroke="none" fill="#FFFFFF" fill-rule="nonzero" />
</g>
</svg>